<svg width="119.000000" height="119.000000" viewBox="0 0 119 119" fill="none" xmlns="http://www.w3.org/2000/svg">
    <g id="vsCode">
        <path d="M101.53 17.6L81.35 7.88C80.21 7.33 78.93 7.15 77.68 7.37C76.43 7.58 75.28 8.17 74.39 9.07L8.32 69.3C7.52 70.02 7.04 71.04 6.99 72.12C6.94 73.2 7.32 74.26 8.04 75.06C8.13 75.15 8.22 75.25 8.31 75.33L13.71 80.23C14.41 80.87 15.32 81.24 16.27 81.29C17.22 81.33 18.16 81.04 18.92 80.46L98.49 20.12C99.09 19.66 99.81 19.38 100.56 19.31C101.31 19.24 102.07 19.38 102.74 19.72C103.42 20.05 103.99 20.57 104.39 21.21C104.78 21.85 105 22.59 105 23.35L105 23.11C105 21.96 104.67 20.83 104.06 19.86C103.44 18.88 102.57 18.1 101.53 17.6Z"
              fill="#0065A9" fill-opacity="1.000000" fill-rule="nonzero"/>
        <path d="M101.53 94.39L81.35 104.11C80.21 104.66 78.93 104.84 77.68 104.63C76.43 104.41 75.28 103.82 74.39 102.93L8.32 42.7C7.52 41.97 7.04 40.95 6.99 39.87C6.94 38.79 7.32 37.73 8.04 36.93C8.13 36.84 8.22 36.75 8.31 36.66L13.71 31.76C14.41 31.12 15.32 30.74 16.28 30.7C17.23 30.66 18.17 30.95 18.93 31.53L98.49 91.87C99.09 92.33 99.81 92.61 100.56 92.68C101.31 92.75 102.07 92.61 102.74 92.27C103.42 91.94 103.99 91.42 104.39 90.78C104.78 90.14 105 89.4 105 88.64L105 88.9C104.99 90.04 104.66 91.17 104.05 92.14C103.44 93.11 102.57 93.89 101.53 94.39Z"
              fill="#007ACC" fill-opacity="1.000000" fill-rule="nonzero"/>
        <path d="M81.35 104.11C80.21 104.66 78.93 104.84 77.68 104.63C76.43 104.41 75.28 103.82 74.39 102.93C74.89 103.42 75.53 103.76 76.22 103.89C76.91 104.03 77.63 103.96 78.28 103.69C78.94 103.42 79.49 102.96 79.89 102.37C80.28 101.79 80.49 101.1 80.5 100.39L80.5 11.6C80.5 10.89 80.29 10.2 79.89 9.61C79.5 9.02 78.94 8.56 78.28 8.29C77.63 8.02 76.9 7.94 76.21 8.08C75.51 8.22 74.87 8.56 74.37 9.07C75.27 8.17 76.42 7.58 77.67 7.36C78.91 7.15 80.19 7.33 81.33 7.88L101.51 17.58C102.55 18.08 103.43 18.86 104.05 19.84C104.67 20.81 104.99 21.94 105 23.1L105 88.9C105 90.05 104.67 91.18 104.06 92.15C103.44 93.13 102.57 93.91 101.53 94.41L81.35 104.11Z"
              fill="#1F9CF0" fill-opacity="1.000000" fill-rule="nonzero"/>
    </g>
    <g id="js">
        <path d="M7.11 7.5L112.11 7.5L112.11 112.5L7.11 112.5L7.11 7.5Z" fill="#F5DE19" fill-opacity="1.000000"
              fill-rule="nonzero"/>
        <path d="M77.65 89.53C78.54 91.34 79.93 92.87 81.65 93.93C83.38 94.99 85.37 95.55 87.4 95.53C91.48 95.53 94.1 93.48 94.1 90.65C94.1 87.28 91.41 86.07 86.91 84.1L84.44 83.04C77.32 80.01 72.59 76.21 72.59 68.18C72.59 60.78 78.22 55.14 87.04 55.14C89.9 54.94 92.75 55.58 95.25 56.98C97.74 58.39 99.77 60.49 101.08 63.04L93.36 67.98C92.86 66.71 91.98 65.63 90.85 64.87C89.72 64.12 88.39 63.72 87.03 63.75C86.43 63.69 85.84 63.75 85.27 63.94C84.7 64.12 84.18 64.42 83.73 64.82C83.29 65.22 82.93 65.7 82.69 66.25C82.44 66.79 82.31 67.38 82.31 67.98C82.31 70.93 84.14 72.13 88.37 73.98L90.84 75.03C99.23 78.63 103.97 82.29 103.97 90.53C103.97 99.42 96.99 104.28 87.62 104.28C83.97 104.52 80.32 103.69 77.13 101.9C73.94 100.11 71.34 97.43 69.64 94.19L77.65 89.53ZM42.79 90.38C44.34 93.13 45.75 95.46 49.14 95.46C52.38 95.46 54.43 94.19 54.43 89.26L54.43 55.71L64.29 55.71L64.29 89.39C64.29 99.6 58.29 104.25 49.56 104.25C46.47 104.42 43.4 103.65 40.76 102.05C38.12 100.44 36.03 98.07 34.76 95.25L42.79 90.38Z"
              fill="#000000" fill-opacity="1.000000" fill-rule="nonzero"/>
    </g>
    <g id="css">
        <path d="M21.36 101.15L12.94 7.43L105.52 7.43L97.08 101.13L59.17 111.56L21.36 101.15Z" fill="#1572B6" fill-opacity="1.000000" fill-rule="nonzero"/>
        <path d="M59.23 103.59L89.87 95.17L97.07 15.1L59.23 15.1L59.23 103.59Z" fill="#33A9DC" fill-opacity="1.000000" fill-rule="nonzero"/>
        <path d="M59.23 49.05L74.57 49.05L75.62 37.28L59.23 37.28L59.23 25.78L88.29 25.78L88.01 28.87L85.17 60.54L59.23 60.54L59.23 49.05Z" fill="#FFFFFF" fill-opacity="1.000000" fill-rule="nonzero"/>
        <path d="M59.3 78.9L59.25 78.91L46.34 75.46L45.51 66.29L33.88 66.29L35.5 84.34L59.24 90.87L59.3 90.86L59.3 78.9Z" fill="#EBEBEB" fill-opacity="1.000000" fill-rule="nonzero"/>
        <path d="M73.58 60.06L72.18 75.45L59.26 78.91L59.26 90.87L83.02 84.34L83.19 82.4L85.21 60.06L73.58 60.06Z" fill="#FFFFFF" fill-opacity="1.000000" fill-rule="nonzero"/>
        <path d="M59.27 25.78L59.27 37.28L31.27 37.28L31.04 34.69L30.51 28.87L30.23 25.78L59.27 25.78ZM59.23 49.05L59.23 60.54L46.48 60.54L46.25 57.96L45.72 52.13L45.45 49.05L59.23 49.05Z" fill="#EBEBEB" fill-opacity="1.000000" fill-rule="nonzero"/>
    </g>
    <g id="git">
        <path id="Vector" d="M102.62 46.82L56.77 0.98C54.13 -1.66 49.85 -1.66 47.21 0.98L37.69 10.5L49.76 22.57C52.57 21.62 55.79 22.26 58.03 24.5C60.27 26.75 60.91 29.99 59.93 32.81L71.57 44.45C74.39 43.48 77.64 44.1 79.89 46.36C83.03 49.5 83.03 54.59 79.89 57.73C76.74 60.88 71.65 60.88 68.5 57.73C66.14 55.37 65.56 51.9 66.75 48.98L55.9 38.13L55.9 66.69C56.69 67.08 57.4 67.6 58.03 68.21C61.17 71.36 61.17 76.45 58.03 79.59C54.88 82.74 49.79 82.74 46.65 79.59C43.51 76.45 43.51 71.36 46.65 68.21C47.4 67.46 48.3 66.86 49.28 66.46L49.28 37.63C48.3 37.23 47.4 36.63 46.65 35.87C44.27 33.5 43.69 30 44.91 27.08L33.01 15.17L1.58 46.6C-1.07 49.25 -1.07 53.53 1.58 56.17L47.42 102.01C50.06 104.65 54.34 104.65 56.98 102.01L102.61 56.38C105.26 53.74 105.26 49.46 102.61 46.82L102.62 46.82Z" fill="#DE4C36" fill-opacity="1.000000" fill-rule="nonzero"/>
    </g> <g id="sass">
    <path id="Vector" d="M99.47 49.07C95.4 49.09 91.86 50.06 88.9 51.5C87.81 49.37 86.72 47.47 86.53 46.07C86.32 44.44 86.06 43.45 86.32 41.51C86.58 39.56 87.73 36.8 87.7 36.58C87.68 36.37 87.45 35.38 85.1 35.36C82.76 35.34 80.74 35.8 80.5 36.41C80.27 37.03 79.82 38.42 79.52 39.86C79.12 41.97 74.83 49.51 72.38 53.47C71.59 51.92 70.91 50.57 70.76 49.49C70.55 47.87 70.29 46.87 70.55 44.93C70.81 42.99 71.96 40.22 71.94 40.01C71.91 39.8 71.68 38.8 69.34 38.78C66.99 38.76 64.97 39.23 64.73 39.84C64.5 40.45 64.24 41.89 63.75 43.28C63.26 44.68 57.57 57.27 56.08 60.52C55.48 61.84 54.85 63.14 54.18 64.43C54.18 64.43 54.16 64.5 54.1 64.6C53.89 65.01 53.68 65.41 53.46 65.81L53.46 65.83C53.14 66.4 52.8 66.93 52.63 66.93C52.5 66.93 52.27 65.4 52.67 63.33C53.52 58.96 55.55 52.16 55.53 51.92C55.53 51.8 55.91 50.61 54.21 50C52.54 49.39 51.95 50.4 51.8 50.4C51.65 50.4 51.54 50.76 51.54 50.76C51.54 50.76 53.4 43.11 48 43.11C44.64 43.11 39.99 46.77 37.69 50.06C35.07 51.48 32.46 52.89 29.85 54.31C28.59 55.01 27.29 55.71 26.08 56.36C25.99 56.28 25.9 56.17 25.82 56.09C19.3 49.18 7.24 44.3 7.75 35.02C7.94 31.64 9.11 22.77 30.91 11.99C48.86 3.22 63.13 5.65 65.61 11.04C69.14 18.73 57.96 33.01 39.42 35.08C32.34 35.87 28.63 33.16 27.7 32.15C26.71 31.09 26.57 31.03 26.2 31.24C25.61 31.56 25.99 32.51 26.2 33.06C26.76 34.49 29.04 37.03 32.89 38.27C36.3 39.37 44.59 39.99 54.63 36.14C65.86 31.83 74.64 19.85 72.06 9.81C69.48 -0.37 52.44 -3.73 36.3 1.95C26.71 5.33 16.32 10.66 8.84 17.59C-0.05 25.83 -1.46 32.99 -0.88 35.99C1.18 46.64 16 53.57 21.92 58.71C21.62 58.88 21.34 59.02 21.11 59.15C18.15 60.61 6.85 66.46 4.04 72.65C0.84 79.67 4.55 84.7 7 85.37C14.61 87.46 22.43 83.7 26.63 77.49C30.83 71.28 30.32 63.21 28.38 59.51C28.36 59.47 28.33 59.42 28.29 59.38C29.06 58.94 29.85 58.47 30.61 58.03C32.02 57.2 33.45 56.41 34.9 55.64C34.17 57.61 33.64 59.95 33.38 63.33C33.06 67.31 34.71 72.46 36.86 74.49C37.82 75.38 38.95 75.4 39.67 75.4C42.19 75.4 43.32 73.33 44.57 70.88C46.11 67.88 47.49 64.39 47.49 64.39C47.49 64.39 45.77 73.81 50.45 73.81C52.16 73.81 53.89 71.62 54.65 70.5L54.65 70.52C54.65 70.52 54.7 70.45 54.78 70.31C54.95 70.03 55.06 69.86 55.06 69.86L55.06 69.82C55.74 68.64 57.27 65.95 59.55 61.5C62.49 55.75 65.33 48.56 65.33 48.56C65.33 48.56 65.59 50.32 66.46 53.23C66.97 54.95 68.04 56.83 68.89 58.64C68.21 59.59 67.78 60.12 67.78 60.12L67.8 60.14C67.25 60.86 66.65 61.64 65.99 62.4C63.67 65.15 60.9 68.3 60.51 69.21C60.06 70.29 60.17 71.07 61.02 71.7C61.64 72.17 62.75 72.23 63.88 72.17C65.97 72.02 67.44 71.51 68.16 71.19C69.29 70.79 70.61 70.18 71.85 69.27C74.13 67.6 75.51 65.21 75.39 62.07C75.32 60.33 74.75 58.6 74.04 56.97C74.26 56.68 74.45 56.38 74.66 56.09C78.26 50.87 81.06 45.14 81.06 45.14C81.06 45.14 81.31 46.89 82.19 49.81C82.61 51.29 83.49 52.9 84.25 54.46C80.86 57.19 78.78 60.35 78.03 62.43C76.69 66.27 77.73 68 79.71 68.4C80.61 68.6 81.89 68.17 82.82 67.77C84.02 67.39 85.42 66.74 86.77 65.76C89.05 64.09 91.24 61.77 91.11 58.62C91.05 57.19 90.67 55.77 90.13 54.4C93.01 53.21 96.72 52.56 101.45 53.11C111.59 54.29 113.6 60.57 113.21 63.21C112.83 65.85 110.7 67.29 110 67.73C109.29 68.17 109.06 68.32 109.12 68.64C109.21 69.1 109.55 69.08 110.15 69C110.98 68.85 115.47 66.86 115.66 62C115.98 55.79 110.02 49.01 99.47 49.07ZM21.22 75.23C17.85 78.86 13.16 80.24 11.14 79.08C8.96 77.83 9.82 72.46 13.95 68.62C16.46 66.27 19.7 64.09 21.86 62.76C22.35 62.47 23.07 62.05 23.94 61.52C24.09 61.43 24.18 61.39 24.18 61.39L24.69 61.07C26.2 66.57 24.75 71.41 21.22 75.23ZM45.72 58.71C44.55 61.54 42.1 68.79 40.61 68.38C39.33 68.05 38.54 62.55 40.35 57.12C41.27 54.4 43.21 51.14 44.34 49.87C46.17 47.85 48.2 47.17 48.69 47.99C49.3 49.07 46.45 56.93 45.72 58.71ZM65.95 68.3C65.46 68.55 64.99 68.72 64.77 68.6C64.63 68.51 64.99 68.17 64.99 68.17C64.99 68.17 67.52 65.47 68.53 64.24C69.1 63.52 69.78 62.68 70.51 61.73L70.51 62C70.51 65.24 67.35 67.41 65.95 68.3L65.95 68.3ZM81.55 64.77C81.18 64.52 81.25 63.67 82.46 61.03C82.93 60 84.04 58.26 85.94 56.59C86.15 57.27 86.3 57.92 86.28 58.54C86.26 62.62 83.32 64.14 81.55 64.77Z" fill="#CD6799" fill-opacity="1.000000" fill-rule="nonzero"/>
</g>
    <g id="man">
        <path d="M66.83 119.74C65.26 119.47 63.64 118.72 62.72 117.9C62.1 117.25 61.74 116.38 61.73 115.48C61.73 114.56 62.19 113.27 62.94 111.99C63.39 111.26 63.74 110.48 63.99 109.66C64.15 109.09 64.48 108.18 64.73 107.59L65.18 106.52L65.3 99.35C65.36 95.39 65.48 91.72 65.57 91.15C65.83 89.5 66.26 87.9 66.82 86.34L67.25 85.31L66.63 84.94C66.06 84.58 65.59 84.1 63.74 81.89C61.45 79.19 58.44 77.71 54.18 77.2C52.8 77.07 51.39 76.96 49.98 76.91C43.73 76.62 40.16 75.31 36.94 72.14C34.53 69.78 33.29 67.02 32.78 62.96C32.1 57.47 31.34 54.66 29.93 52.38C29.58 51.81 29.18 51.28 28.74 50.79L28.17 50.23L26.92 51.03C26.24 51.48 25.28 52.05 24.81 52.3C23.25 53.16 21.76 54.12 20.34 55.15C16.84 57.69 13.03 60.87 10.94 62.96C10.01 63.9 9.52 64.31 9.3 64.27C7.88 64.06 8.97 57.88 11.29 53.23C14.26 47.24 19.26 41.71 25.04 37.98C29.79 34.91 37.47 30.69 41.02 29.21C47.33 26.57 55.49 23.72 61.08 22.2C62.25 21.86 62.97 21.57 63.46 21.24C64.55 20.48 65.63 20.11 66.86 20.09C67.89 20.07 67.99 20.05 68.99 19.38C70.16 18.62 70.51 18.58 71.68 18.99L72.44 19.27L73.38 18.62L74.32 18L75.66 18.01C76.7 18.03 77.17 18 77.62 17.8C78.18 17.54 78.2 17.51 78.36 16.57C78.71 14.54 78.75 13.52 78.54 12.29C78.26 10.67 78.23 4.38 78.5 3.15C78.79 1.82 78.99 1.55 79.98 1.06C81.47 0.34 82.58 0.12 85.14 0.12C88.26 0.12 89.85 0.55 91.02 1.69C92.07 2.7 92.25 5.08 91.7 10.67C91.37 13.89 91.33 14.79 91.43 16.9C91.47 18.25 91.56 19.52 91.61 19.69C91.68 20.03 91.76 20.05 92.9 20.07C94.01 20.08 94.2 20.14 95.26 20.69C96.27 21.22 97.04 21.87 97.19 22.33C97.21 22.43 97.39 22.43 97.7 22.33C98.3 22.16 98.83 22.35 99.26 22.88C99.52 23.22 99.67 23.27 100.26 23.27C101.06 23.27 101.36 23.47 102.02 24.45C102.33 24.88 102.76 25.23 103.25 25.44C104.34 25.99 105.83 27.51 106.4 28.72C107.27 30.52 107.45 32.61 106.9 34.48C106.71 35.19 106.71 35.21 107.12 35.89C107.97 37.36 108.29 39.15 107.94 40.68L107.74 41.58L108.33 42.16C111.24 45.07 110.81 49.82 107.25 54.06C106.86 54.54 106.52 55.07 106.26 55.64C105.57 57.45 104.79 58.72 103.78 59.78L102.74 60.83L101.69 60.83C100.64 60.83 99.15 60.48 98.25 60.01C97.88 59.82 97.86 59.82 97.94 60.05C98.18 60.91 98.76 64.4 98.96 66.34C99.27 69.31 99.17 73.62 98.76 75.48C98.46 76.85 97.96 78.18 97.28 79.41C96.89 80.03 96.87 80.17 96.94 80.93C97.06 82 96.81 83.8 96.38 84.99C95.85 86.38 95.65 87.02 95.54 87.72C95.44 88.33 95.44 88.33 95.87 88.33C96.44 88.33 96.75 88.66 96.75 89.32C96.75 89.62 96.49 91.2 96.18 92.82C95.32 97.37 95.26 97.88 95.26 102.29C95.24 106.84 95.24 106.8 96.28 107.49L98.6 108.99C100.6 110.32 102.75 111.42 104.99 112.27C108.25 113.56 108.7 113.89 108.7 114.99C108.7 115.47 108.6 115.65 108.2 116.04C106.95 117.25 104.48 117.52 99.52 117C96.94 116.75 94.36 116.63 91.77 116.62C84.93 116.53 83.93 116.29 83.04 114.59C82.53 113.62 82.63 112.35 83.33 110.26C83.64 109.34 83.91 108.4 84.15 107.44C84.62 105.18 84.31 102.48 83.21 99.44L82.28 96.84C81.36 94.2 80.85 89.38 81.4 88.29C81.5 88.07 81.67 88.03 82.14 88.05L82.73 88.11L83.21 87.09C83.58 86.29 83.99 85.77 85.11 84.65L86.53 83.23L86.45 82.31C86.39 81.43 85.24 77.17 85.08 77.19C85.02 77.19 84.71 77.62 84.36 78.16C83.5 79.45 81.61 81.44 80.53 82.17C80.06 82.48 79.67 82.85 79.67 82.97C79.65 83.5 79.2 84.54 78.66 85.26C78.13 85.96 78.09 86.08 78.17 86.7C78.3 87.62 78.01 90.57 77.66 92.11C77.35 93.26 76.91 94.37 76.37 95.43C75.03 98.22 74.01 100.72 73.76 101.88C73.57 102.99 73.45 104.11 73.4 105.24C73.34 106.56 73.21 107.85 73.11 108.13C72.98 108.5 72.98 108.79 73.09 109.36C73.19 109.77 73.25 110.68 73.23 111.41C73.21 112.41 73.29 113.05 73.58 114.22C74.09 116.21 74.18 117.46 73.95 118.21C73.79 118.68 73.64 118.85 73.11 119.11C71.94 119.71 68.62 120.04 66.82 119.73L66.83 119.74ZM71.57 118.14C72.25 117.94 72.84 117.36 72.84 116.83C72.84 116.59 72.65 115.91 72.41 115.31C71.94 114.16 71.14 111.11 71.14 110.6C71.14 110.35 71.16 110.33 71.55 110.54L71.98 110.78L71.98 110.23C71.92 109.73 71.8 109.23 71.64 108.75C71.27 107.63 71.24 107.61 68.87 107.47L67.27 107.4L66.68 107.96C66.36 108.29 66.08 108.66 65.84 109.06C65.59 109.56 65.49 110.33 65.65 110.5C65.69 110.56 66.08 110.5 66.51 110.4C66.76 110.33 67.02 110.28 67.29 110.27C67.29 110.29 66.86 110.64 66.31 111.01C63.97 112.77 63.15 113.84 63.15 115.21C63.15 116.64 64.49 117.75 66.6 118.08C68.05 118.3 70.86 118.36 71.57 118.14L71.57 118.14ZM103.35 115.81C103.93 115.11 103.85 114.39 103.11 113.57C102.68 113.14 102.19 112.77 101.64 112.47C101.1 112.18 100.55 111.85 100 111.5C99.01 110.86 97.99 110.26 96.95 109.7C96.05 109.21 95.18 108.7 94.32 108.16L93.96 107.89L93.96 102.52C93.96 97.23 93.95 97.15 93.67 97.23C92.3 97.6 90.04 97.77 87.17 97.71L84.06 97.68L84.51 98.77C85.35 100.84 85.79 103.62 85.79 106.8C85.79 107.99 85.71 108.42 85.41 109.26C85.26 109.67 85.12 110.08 84.98 110.49C84.92 110.67 85.14 110.8 85.94 111.04C86.52 111.21 87.38 111.39 87.87 111.45L88.77 111.54L88.68 112.44C88.58 113.46 88.7 114.53 88.95 114.87C89.11 115.06 89.69 115.14 92.41 115.26C94.46 115.35 96.69 115.57 98.44 115.82C99.96 116.06 101.61 116.25 102.09 116.25C102.92 116.27 102.99 116.23 103.34 115.82L103.35 115.81ZM72.08 106.68C72.16 106.62 72.27 105.56 72.32 104.31C72.47 100.82 72.61 100.31 74.37 96.36C75.81 93.14 76.58 90.13 76.52 88L76.48 86.73L75.93 87.26C74.8 88.39 75.58 86.62 76.93 85.03C77.94 83.82 78.3 83.16 78.45 82.09C78.53 81.66 78.69 81.44 79.35 80.94C81.83 79.06 83.75 76.53 84.88 73.63C85.15 72.93 85.85 70.53 86.44 68.3C87.54 64.18 88.12 62.4 88.65 61.64C88.85 61.35 88.92 61.29 88.89 61.48C88.6 62.53 88.38 63.59 88.22 64.66C88.07 65.62 87.77 67.5 87.58 68.8C87.21 71.48 86.82 73.2 86.29 74.53L85.94 75.43L86.87 77.85C87.85 80.33 88.3 82.13 88.38 83.86L88.44 84.84L87.68 85C86.67 85.17 85.77 85.73 85.17 86.56C84.51 87.52 84.14 88.3 84.32 88.47C84.39 88.55 85.35 88.73 86.45 88.86C88.14 89.06 88.79 89.06 91.04 88.92C92.01 88.89 92.97 88.79 93.93 88.65C94.14 88.57 94.36 88.14 94.71 87.03C95.51 84.47 95.66 83.57 95.57 81.78L95.49 80.19L95.9 79.66C96.85 78.45 97.59 76.27 97.91 73.71C98.28 70.58 97.59 64.04 96.32 58.41C95.72 55.74 95.46 54.13 95.46 52.96L95.46 51.93L94.51 52.03C91.07 52.4 86.91 52.3 84.37 51.77C82.98 51.5 79.49 50.46 78.73 50.13L78.12 49.86L78.05 50.54C77.99 50.91 77.93 51.28 77.85 51.67C77.73 52.08 77.77 52.18 78.5 52.88C79.4 53.8 79.67 54.27 79.67 54.89C79.67 55.28 79.46 55.6 78.36 56.73C77.58 57.57 76.7 58.32 75.76 58.98L74.49 59.83L73.94 61.73C71.99 68.66 71.62 74.97 72.91 79.48L73.22 80.61L72.59 81.39C70.25 84.34 68.86 86.59 68.65 87.84C68.52 88.46 68.38 89.07 68.22 89.68C67.71 91.61 67.32 94.44 67.14 97.51C67.02 100.08 66.86 102.64 66.64 105.21L66.54 105.97L67.52 106.26C68.06 106.44 68.88 106.63 69.35 106.71C70.23 106.84 71.85 106.81 72.11 106.67L72.08 106.68ZM91.04 95.93C92.57 95.83 93.95 95.6 94.23 95.37C94.34 95.29 94.48 94.88 94.52 94.47L94.62 93.72L93.41 94C92.45 94.19 91.49 94.31 90.53 94.39C88.23 94.48 85.91 94.42 83.62 94.19C82.86 94.08 82.86 94.08 83.09 95.07C83.28 95.81 83.33 95.85 85.32 95.99C86.64 96.1 88.5 96.09 91.04 95.93L91.04 95.93ZM89.77 92.53C91.76 92.36 94.25 91.93 94.73 91.68C94.89 91.6 95.03 91.3 95.09 90.97L95.26 89.94L95.36 89.45L94.87 89.55C92.7 90 91.06 90.13 87.78 90.13C84.58 90.13 84.21 90.11 83.37 89.82C83.04 89.68 82.7 89.6 82.35 89.58C82.22 89.66 82.19 90.78 82.31 91.56C82.39 92.02 82.47 92.1 82.94 92.24C84.42 92.65 86.93 92.74 89.78 92.51L89.77 92.53ZM53.52 74.92C58.52 73.47 65.07 69.23 70.42 63.92C72.16 62.18 72.37 61.95 72.6 61.17L72.92 60.17C72.95 60.09 72.64 59.96 72.23 59.86C71.16 59.61 70.34 58.98 70.34 58.42C70.34 58.08 70.14 57.75 69.58 57.15C68.66 56.11 68.43 55.66 68.33 54.67L68.25 53.86L67.16 53.08C66.53 52.63 64.34 51.42 62.02 50.25C60.25 49.39 58.52 48.45 56.82 47.44C54.87 46.13 53.56 44.57 52.82 42.72C52.68 42.34 52.51 42.03 52.45 42.03C52.29 42.03 47.9 46.27 46.02 48.26C41.39 53.14 38.21 57.38 36.2 61.31C35.69 62.28 35.14 63.44 34.98 63.87L34.69 64.65L35.04 65.95C35.26 66.66 35.71 67.81 36.06 68.49C37.29 70.92 38.76 72.38 41.18 73.57C43.78 74.86 46.08 75.31 49.93 75.25C52 75.23 52.61 75.17 53.52 74.9L53.52 74.92ZM14.07 57.79C17.35 54.88 21.88 51.69 27.43 48.39C31.07 46.23 45.11 39.19 51.57 36.32C52.75 35.79 53.8 35.31 53.92 35.25C54.03 35.17 54.37 34.33 54.68 33.39C56.05 29.06 56.73 28.2 59.21 27.63C59.52 27.55 59.6 27.46 59.6 27.15C59.6 26.58 59.99 25.27 60.32 24.69C60.58 24.24 60.58 24.22 60.36 24.28C60.23 24.31 59.4 24.55 58.55 24.81C46.63 28.24 36.22 32.81 27.24 38.52C17.65 44.61 12.12 51.91 10.52 60.66L10.4 61.31L11.58 60.16C12.2 59.51 13.34 58.46 14.08 57.81L14.07 57.79ZM102.45 59.45C103.41 58.96 104.89 56.71 105.44 54.94C105.6 54.31 105.91 53.73 106.36 53.24C107.8 51.64 108.99 48.73 109.01 46.74C109.01 43.63 107.25 42.44 104.7 43.77C104.36 43.92 104.09 44.04 104.05 44C103.92 43.87 104.64 43.16 105.52 42.61C106.67 41.85 106.89 41.4 106.89 39.78C106.9 38.47 106.52 37.19 105.77 36.11C105.42 35.58 105.29 35.23 105.34 35.02L105.69 33.71C106.18 31.97 106.01 29.98 105.24 28.71C104.11 26.8 102.72 25.86 100.79 25.7L99.66 25.62L100.32 26.37C102.29 28.5 103.25 31.17 102.86 33.46C102.66 34.63 102.49 34.86 101.36 35.31L100.69 35.59L100.77 36.49C100.91 37.95 100.65 39.03 99.72 41C99.25 42 98.9 42.89 98.94 42.99C99.05 43.32 100.34 43.95 101.36 44.2L102.36 44.44L101.73 44.65C100.91 44.91 100.73 45.28 100.73 46.62C100.73 47.85 100.91 48.36 101.81 49.71C102.21 50.29 102.49 50.9 102.53 51.25C102.61 51.8 102.59 51.84 102.14 51.99C101.63 52.14 101.11 52.22 100.58 52.25C98.74 52.36 98.6 52.42 97.78 53.2C97.04 53.91 97.02 53.95 97.02 54.73C97.02 55.8 97.43 57.97 97.68 58.26C98.02 58.62 99.87 59.53 100.59 59.67C101.22 59.83 101.88 59.75 102.45 59.46L102.45 59.45ZM75.4 57.99C76.59 57.05 77.53 56.11 78.05 55.31C78.39 54.82 78.41 54.72 78.25 54.31C77.97 53.68 76.18 52.06 75.18 51.58C74.52 51.28 73.81 51.08 73.09 50.97L71.86 50.82L71.1 49.86C69.52 47.91 68.64 46.38 67.39 43.43C66.29 40.93 65.34 39.47 63.81 38.02C63.19 37.43 62.74 36.95 62.78 36.95C62.86 36.95 63.6 37.32 64.46 37.77C65.88 38.53 66.06 38.59 66.71 38.49C69.03 38.22 71.08 35.55 71.82 31.8C72.04 30.74 72.47 29.67 72.92 29.02C72.94 29 73.84 29.59 74.89 30.35C77.57 32.24 78.15 32.53 79.68 32.59C80.67 32.63 81.24 32.56 83.04 32.13C86.87 31.19 91.01 30.82 93.53 31.15C94.95 31.35 97 31.97 98.52 32.69C100.03 33.4 100.32 33.43 100.81 33C101.22 32.65 101.22 32.59 101.22 31.29C101.2 29.35 100.49 27.26 99.42 26.01C98.87 25.37 97.33 24.31 95.81 23.51C95.26 23.22 94.72 22.93 94.19 22.63C93.46 22.2 92.64 22.26 90.42 22.85C87.84 23.51 87.15 23.51 84.21 22.75C81.71 22.12 81.55 22.11 79.09 22.5C77.78 22.69 74.5 22.57 73.4 22.28C72.86 22.12 72.31 21.97 71.78 21.78C70.83 21.4 69.17 21.34 67.66 21.62C64.67 22.15 62.41 23.77 61.59 25.97C61.16 27.09 61.22 27.61 61.78 27.96C62.68 28.53 63.87 30.07 63.87 30.68C63.87 30.72 63.58 30.46 63.24 30.11C62.4 29.23 61.64 28.84 60.74 28.84C60.16 28.86 59.59 29.03 59.11 29.36C58.62 29.68 58.23 30.13 57.99 30.66C57.73 31.35 57.51 32.05 57.33 32.77C56.78 34.76 56.29 35.82 55.26 37.22C54.34 38.49 54.2 39.06 54.53 40.48C55.35 44.08 56.78 45.52 62.73 48.9C65.86 50.68 67.46 51.68 68.63 52.56C69.53 53.22 69.55 53.26 69.47 53.77C69.3 54.94 70.04 56.21 71.51 57.24C71.88 57.5 72.11 57.77 72.11 57.97C72.11 58.32 73.11 58.81 73.83 58.81C74.24 58.81 74.55 58.63 75.39 57.99L75.4 57.99ZM99.48 51.4C101.75 51.48 101.86 51.3 100.65 49.9C99.38 48.43 99.03 47.24 99.5 45.93L99.7 45.43L98.9 45.04C98.62 44.9 98.35 44.76 98.07 44.67C97.94 45.19 97.8 45.7 97.68 46.23C97.39 47.42 97.04 50.51 97.02 51.82C97.02 51.93 97.22 51.9 97.55 51.68C98.02 51.41 98.25 51.37 99.48 51.41L99.48 51.4ZM91.88 51.28C93.25 51.21 94.66 51.11 95.03 51.05L95.71 50.95L95.79 48.7C95.91 45.5 96.38 43.61 97.76 40.58C98.74 38.43 99.17 36.55 98.96 35.15C98.88 34.54 98.84 34.5 98.02 34.15C96.51 33.55 94.95 33.13 93.35 32.88C91.81 32.66 87.27 32.78 85.58 33.12C84.87 33.23 83.58 33.5 82.73 33.72C80.6 34.21 79.46 34.15 77.84 33.45C76.24 32.74 75.23 32.1 74.27 31.2C73.51 30.49 73.43 30.46 73.23 30.69C73.08 30.87 73 31.4 72.94 32.53C72.88 34.27 72.61 35.18 71.85 36.41C71.68 36.67 71.53 36.94 71.42 37.22C71.42 37.28 72 37.96 72.72 38.7C75.23 41.3 76.46 41.97 78.43 41.83C79.07 41.77 79.52 41.79 79.52 41.86C79.52 42.02 78.25 43.02 77.73 43.29C77.47 43.42 77.42 43.56 77.45 43.86L77.76 45.91C77.94 47.08 78.08 47.62 78.25 47.78C78.72 48.17 81.14 49.42 82.67 50.05C84.66 50.85 85.75 51.14 87.27 51.28C89.15 51.43 89.19 51.43 91.88 51.28L91.88 51.28ZM75.73 49.14C75.77 49.08 75.63 47.94 75.38 46.63C75.07 44.86 74.89 44.21 74.7 44.04C74.56 43.92 73.84 43.41 73.11 42.88C72.16 42.2 71.26 41.45 70.42 40.64L69.07 39.31L68.35 39.68L67.59 40.09C67.65 40.4 67.76 40.69 67.9 40.97C68.11 41.44 68.54 42.59 68.85 43.53C69.68 45.97 70.32 47.14 71.94 49.27L72.54 50.07L73.7 50.25C74.34 50.34 74.99 50.48 75.16 50.54C75.44 50.65 75.47 50.6 75.55 49.97C75.59 49.7 75.65 49.41 75.73 49.13L75.73 49.14ZM100.48 24.84C101.48 24.74 101.65 24.6 101.22 24.16C100.95 23.88 100.32 23.86 99.81 24.1C99.48 24.25 99.41 24.21 98.88 23.65C98.33 23.04 98.29 23.02 97.61 23.1C96.98 23.18 96.88 23.16 96.8 22.9C96.56 22.48 96.26 22.1 95.9 21.77C95.46 21.27 94.9 20.87 94.28 20.62C93.07 20.15 92.39 20.21 91.23 20.86C87.89 22.67 88.03 22.65 84.81 21.83C81.8 21.07 79.55 20.29 78.83 19.8C78.23 19.39 76.94 18.94 75.86 18.8C75.06 18.69 74.55 18.86 73.79 19.48L73.38 19.82L73.75 20.46C74.26 21.36 74.2 21.42 73.44 20.76C72.62 20.07 71.64 19.6 71.02 19.58C70.57 19.58 69.24 20.17 69.08 20.42C69.02 20.5 69.44 20.6 69.98 20.64C70.55 20.7 71.33 20.89 71.86 21.1C73.23 21.69 73.93 21.88 75.18 22C76.55 22.14 79.02 21.99 79.32 21.75C79.47 21.61 79.9 21.59 80.8 21.67C81.99 21.75 82.48 21.87 85.31 22.63C86.96 23.08 88.11 23.04 90.06 22.51C90.96 22.26 92.09 22 92.56 21.94C93.36 21.87 93.52 21.91 94.77 22.47C96.76 23.37 97.82 23.94 98.4 24.46C98.99 24.97 99.07 24.97 100.47 24.85L100.48 24.84ZM89.34 21.42L90.54 20.8L90.5 19.59C90.48 18.75 90.44 17.92 90.4 17.11L90.3 15.86L89.11 16.78C88.41 17.32 87.72 17.73 87.43 17.79C86.57 17.95 82.34 17.79 81.94 17.58C81.42 17.19 80.93 16.76 80.48 16.29L79.38 15.18L79.36 15.84C79.36 16.19 79.32 16.79 79.25 17.17C79.15 17.87 79.15 17.89 79.91 18.85C80.32 19.37 80.65 19.84 80.65 19.9C80.65 20.27 86.3 22.03 87.57 22.05C87.98 22.05 88.49 21.87 89.34 21.42ZM87.08 16.99C88.49 16.71 89.17 15.7 89.7 13.12C90.24 10.35 90.52 5.99 90.26 4.14C90.03 2.46 88.15 1.71 84.58 1.83C82.35 1.91 81.43 2.12 80.67 2.77C80.2 3.16 80.2 3.2 79.99 5.05C79.6 8.6 80.18 13.66 81.2 15.56C81.69 16.48 82.12 16.81 83.01 16.96C84.03 17.14 86.2 17.14 87.08 16.98L87.08 16.99Z" fill="#000000" fill-opacity="1.000000" fill-rule="nonzero"/>
    </g>
    <g id="w">

        <path id="Vector" d="M27.84 22.08C31.66 6.8 41.21 -0.85 56.5 -0.85C79.42 -0.85 82.29 16.35 93.75 19.21C101.39 21.12 108.08 18.26 113.81 10.62C109.99 25.9 100.44 33.54 85.15 33.54C62.23 33.54 59.36 16.35 47.9 13.48C40.26 11.57 33.57 14.44 27.84 22.08ZM-0.82 56.47C3 41.18 12.56 33.54 27.84 33.54C50.76 33.54 53.63 50.74 65.09 53.6C72.73 55.51 79.42 52.65 85.15 45C81.33 60.29 71.78 67.93 56.5 67.93C33.57 67.93 30.7 50.74 19.24 47.87C11.6 45.96 4.91 48.83 -0.82 56.47Z" fill="#44A8B3" fill-opacity="1.000000" fill-rule="nonzero"/>
    </g>
    <g id="react">
        <path d="M93.1056 32.7027C91.9031 32.2887 90.6904 31.9051 89.4687 31.5523C89.6739 30.7106 89.8628 29.8792 90.0305 29.0623C92.7838 15.6483 90.9839 4.84178 84.8361 1.28375C78.9416 -2.12722 69.3016 1.42949 59.5659 9.93342C58.6064 10.773 57.6682 11.6368 56.7521 12.524C56.1389 11.934 55.5149 11.3556 54.8803 10.7888C44.6767 1.69616 34.4493 -2.13608 28.3081 1.43215C22.4189 4.85374 20.675 15.0127 23.1538 27.7254C23.4004 28.9844 23.6788 30.237 23.9888 31.4819C22.5411 31.8947 21.1442 32.3342 19.8073 32.8019C7.84441 36.9881 0.204742 43.5483 0.204742 50.3529C0.204742 57.3808 8.40627 64.43 20.8661 68.7043C21.8763 69.0495 22.8948 69.3692 23.9209 69.6634C23.5876 71.0042 23.2918 72.354 23.0337 73.7114C20.6706 86.2035 22.516 96.1223 28.3893 99.5222C34.4555 103.033 44.637 99.4247 54.5506 90.7268C55.3545 90.0196 56.1407 89.2925 56.9084 88.546C57.9004 89.5066 58.9189 90.4393 59.9627 91.343C69.566 99.6365 79.0501 102.985 84.9177 99.5762C90.9782 96.055 92.948 85.3995 90.3907 72.4356C90.1892 71.42 89.9633 70.4094 89.7132 69.4047C90.4282 69.1921 91.13 68.9732 91.8141 68.7455C104.767 64.4384 113.195 57.4747 113.195 50.3529C113.195 43.5234 105.309 36.919 93.1056 32.7027ZM90.2962 64.1474C89.6783 64.3525 89.0445 64.5505 88.3983 64.7432C86.9683 60.1995 85.0386 55.3684 82.6769 50.3764C84.9305 45.5036 86.786 40.734 88.1759 36.22C89.3318 36.5558 90.4534 36.9097 91.5347 37.2832C101.991 40.8961 108.369 46.2372 108.369 50.3529C108.369 54.7367 101.481 60.4277 90.2962 64.1474ZM85.6557 73.3765C86.7865 79.1087 86.9476 84.2916 86.1986 88.3435C85.5259 91.9844 84.1727 94.4115 82.499 95.3839C78.9385 97.4526 71.3235 94.7637 63.111 87.6706C62.1401 86.8305 61.1927 85.9634 60.2699 85.0703C63.4539 81.5756 66.6357 77.5131 69.7412 73.0008C75.2036 72.5144 80.3641 71.7188 85.0439 70.6331C85.2694 71.5426 85.4734 72.4573 85.6557 73.3765ZM38.7257 95.0264C35.2468 96.2592 32.4759 96.2946 30.8009 95.3254C27.2369 93.2624 25.7552 85.298 27.7762 74.6151C28.0165 73.3527 28.2915 72.0972 28.6011 70.8502C33.2293 71.8779 38.3523 72.6168 43.8275 73.0624C46.9542 77.4776 50.2278 81.5358 53.5271 85.0894C52.8259 85.7703 52.1082 86.4338 51.3745 87.0793C46.9904 90.9252 42.5974 93.654 38.7257 95.0264ZM22.4277 64.1204C16.9181 62.2302 12.368 59.7738 9.24929 57.0933C6.44659 54.6848 5.032 52.2932 5.032 50.3529C5.032 46.2234 11.1657 40.9564 21.3962 37.3766C22.6378 36.9425 23.9372 36.5327 25.2856 36.1482C26.6997 40.7641 28.5544 45.5904 30.7925 50.4707C28.5252 55.4233 26.6441 60.3267 25.2163 64.997C24.2797 64.7278 23.3499 64.4355 22.4277 64.1204ZM27.891 26.7947C25.7676 15.9031 27.1777 7.68706 30.7268 5.62497C34.5067 3.42867 42.8653 6.56011 51.6755 14.4115C52.25 14.9247 52.8152 15.4482 53.3708 15.9819C50.0879 19.52 46.8443 23.548 43.7454 27.9371C38.4313 28.4315 33.3445 29.2253 28.6678 30.2889C28.3797 29.131 28.1206 27.9661 27.891 26.7951V26.7947ZM76.6301 38.8739C75.5255 36.9589 74.3798 35.0679 73.194 33.2024C76.7991 33.66 80.2533 34.2673 83.4969 35.0098C82.5233 38.1425 81.3095 41.4175 79.8808 44.7753C78.8365 42.7867 77.7527 40.8191 76.6301 38.8739ZM56.7544 19.4443C58.9806 21.8652 61.2104 24.5678 63.4036 27.5003C58.9546 27.2894 54.4982 27.2886 50.0491 27.4977C52.2444 24.5922 54.4932 21.8931 56.7544 19.4443ZM36.751 38.9071C35.6425 40.8367 34.5789 42.792 33.5613 44.7713C32.1559 41.4255 30.9532 38.1355 29.9712 34.9584C33.1949 34.2346 36.6327 33.6427 40.2149 33.1935C39.0159 35.0704 37.8609 36.9754 36.751 38.9067V38.9071ZM40.3177 67.8569C36.6169 67.4423 33.1274 66.881 29.9045 66.1767C30.902 62.9429 32.1312 59.5829 33.567 56.1653C34.5887 58.1461 35.6567 60.1026 36.77 62.033C37.9149 64.0176 39.1004 65.9614 40.3177 67.8569ZM56.8876 81.6027C54.5996 79.1255 52.3177 76.3848 50.0892 73.4372C52.2528 73.5222 54.4583 73.5656 56.7001 73.5656C59.0031 73.5656 61.2797 73.5138 63.5205 73.4137C61.3203 76.4145 59.0989 79.1592 56.8876 81.6027ZM79.9263 55.9907C81.4366 59.446 82.7095 62.7883 83.7203 65.9667C80.4444 66.7171 76.9073 67.3214 73.1804 67.7701C74.3746 65.8699 75.5311 63.9461 76.6491 61.9998C77.7858 60.0214 78.8784 58.0179 79.9263 55.9907ZM72.468 59.5794C70.7564 62.5634 68.9487 65.4909 67.0475 68.357C63.6038 68.6018 60.1524 68.7234 56.7001 68.7216C53.1837 68.7216 49.7635 68.6118 46.47 68.3974C44.5192 65.5378 42.677 62.6053 40.9471 59.6059H40.9476C39.2259 56.6225 37.6177 53.5745 36.1265 50.4685C37.6139 47.3618 39.2172 44.3124 40.933 41.3267L40.9326 41.3271C42.6477 38.3407 44.4753 35.4206 46.4113 32.5734C49.7714 32.3182 53.2172 32.1853 56.6996 32.1853H56.7001C60.1984 32.1853 63.6485 32.3195 67.0078 32.5765C68.9243 35.4195 70.7402 38.3295 72.4521 41.301C74.1736 44.2801 75.7981 47.3147 77.3231 50.3999C75.8138 53.5166 74.1944 56.5783 72.468 59.5794ZM82.4253 5.48056C86.2087 7.67067 87.6802 16.5024 85.303 28.0842C85.1512 28.8231 84.9808 29.5757 84.7954 30.339C80.1072 29.2528 75.0169 28.4452 69.6874 27.9433C66.5828 23.506 63.3656 19.4717 60.1361 15.9792C60.9825 15.1604 61.849 14.3628 62.7349 13.5871C71.0768 6.30141 78.8732 3.42468 82.4253 5.48056ZM56.7001 40.2263C62.2724 40.2263 66.7898 44.7603 66.7898 50.3529C66.7898 55.9456 62.2724 60.4795 56.7001 60.4795C51.1278 60.4795 46.6104 55.9456 46.6104 50.3529C46.6104 44.7603 51.1278 40.2263 56.7001 40.2263Z"
              fill="#00D8FF"/>
    </g>
    <g id="cat">
        <path d="M44 0C19.69 0 0 19.69 0 44C0 63.47 12.59 79.91 30.08 85.74C32.28 86.13 33.11 84.81 33.11 83.65C33.11 82.61 33.05 79.14 33.05 75.46C22 77.49 19.14 72.76 18.26 70.29C17.76 69.02 15.62 65.12 13.75 64.07C12.21 63.25 10.01 61.21 13.69 61.16C17.16 61.1 19.63 64.35 20.45 65.67C24.42 72.32 30.74 70.45 33.27 69.3C33.66 66.44 34.81 64.51 36.08 63.41C26.29 62.31 16.06 58.52 16.06 41.69C16.06 36.9 17.76 32.94 20.57 29.86C20.12 28.76 18.59 24.25 21.01 18.2C21.01 18.2 24.69 17.04 33.11 22.71C36.63 21.72 40.37 21.23 44.11 21.23C47.85 21.23 51.59 21.72 55.11 22.71C63.52 16.99 67.21 18.2 67.21 18.2C69.62 24.25 68.08 28.76 67.65 29.86C70.45 32.94 72.16 36.84 72.16 41.69C72.16 58.57 61.87 62.31 52.08 63.41C53.68 64.79 55.05 67.43 55.05 71.55C55.05 77.44 55 82.17 55 83.65C55 84.81 55.82 86.18 58.02 85.74C66.75 82.79 74.34 77.18 79.72 69.69C85.1 62.2 87.99 53.21 88 44C88 19.69 68.31 0 44 0Z" fill="#000000" fill-opacity="1.000000" fill-rule="evenodd"/>

    </g>
    <g id="boot">
        <path d="M-0.61 75.78C-0.61 81.97 4.48 87 10.74 87L76.05 87C82.32 87 87.4 81.97 87.4 75.78L87.4 11.21C87.4 5.02 82.31 0 76.05 0L10.74 0C4.47 0 -0.61 5.02 -0.61 11.21L-0.61 75.78L-0.61 75.78Z" fill="#563D7C" fill-opacity="1.000000" fill-rule="nonzero"/>
        <path d="M35.89 38.48L35.89 26.16L46.86 26.16C47.9 26.16 48.91 26.24 49.88 26.42C50.85 26.59 51.71 26.9 52.45 27.34C53.2 27.78 53.8 28.4 54.24 29.18C54.69 29.97 54.92 30.98 54.92 32.21C54.92 34.42 54.24 36.02 52.9 37C51.56 37.99 49.84 38.48 47.75 38.48L35.89 38.48ZM24.17 17.16L24.17 69.83L49.99 69.83C52.38 69.83 54.7 69.54 56.97 68.95C59.23 68.36 61.25 67.45 63.01 66.22C64.78 64.99 66.18 63.4 67.23 61.46C68.27 59.52 68.8 57.22 68.8 54.56C68.8 51.27 67.99 48.45 66.37 46.11C64.75 43.78 62.3 42.14 59.02 41.21C61.41 40.08 63.21 38.63 64.43 36.86C65.65 35.08 66.26 32.87 66.26 30.22C66.26 27.76 65.85 25.69 65.03 24.02C64.21 22.35 63.05 21.01 61.56 20C60.06 18.99 58.27 18.26 56.18 17.82C54.09 17.38 51.78 17.16 49.24 17.16L24.17 17.16ZM35.89 60.83L35.89 46.37L48.65 46.37C51.18 46.37 53.22 46.95 54.77 48.11C56.31 49.26 57.08 51.19 57.08 53.9C57.08 55.27 56.84 56.41 56.37 57.29C55.9 58.18 55.26 58.88 54.47 59.39C53.67 59.91 52.75 60.28 51.71 60.5C50.66 60.72 49.57 60.83 48.42 60.83L35.89 60.83Z" fill="#FFFFFF" fill-opacity="1.000000" fill-rule="nonzero"/>

    </g>
    <!--socialIcons-->
    <g id="instagram">
        <path d="M15.6516 2.09998H5.34844C3.55687 2.09998 2.1 3.55628 2.1 5.34715V8.77799V15.6528C2.1 17.4437 3.55687 18.9 5.34844 18.9H15.6516C17.4431 18.9 18.9 17.4437 18.9 15.6528V8.77143V5.34058C18.8934 3.55628 17.4366 2.09998 15.6516 2.09998ZM16.5834 4.03516H16.9575V4.40251V6.88217L14.1159 6.88873L14.1094 4.04172L16.5834 4.03516ZM8.09812 8.77143C8.63625 8.03016 9.50906 7.53816 10.4934 7.53816C11.4778 7.53816 12.3506 8.0236 12.8887 8.77143C13.2431 9.25687 13.4466 9.85382 13.4466 10.4967C13.4466 12.1236 12.1209 13.4552 10.4869 13.4552C8.85281 13.4552 7.54031 12.1236 7.54031 10.4967C7.54031 9.85382 7.75031 9.25687 8.09812 8.77143ZM17.2594 15.6462C17.2594 16.5318 16.5375 17.2534 15.6516 17.2534H5.34844C4.4625 17.2534 3.74062 16.5318 3.74062 15.6462V8.77143H6.2475C6.03094 9.30279 5.90625 9.88662 5.90625 10.4967C5.90625 13.0288 7.96687 15.0887 10.5 15.0887C13.0331 15.0887 15.0937 13.0288 15.0937 10.4967C15.0937 9.88662 14.9691 9.30279 14.7525 8.77143H17.2594V15.6462Z"
              fill="currentColor"/>
    </g>
    <g id="linkedIn">
        <path d="M5.80637 7.88635H2.53296V18.3626H5.80637V7.88635Z" fill="currentColor"/>
        <path d="M4.10079 2.94019C2.89376 2.94019 2.10001 3.72082 2.10001 4.75729C2.10001 5.77408 2.86752 6.57439 4.05487 6.57439H4.08111C5.31437 6.57439 6.08189 5.76752 6.07533 4.75729C6.04909 3.72082 5.30781 2.94019 4.10079 2.94019Z"
              fill="currentColor"/>
        <path d="M14.7476 7.78796C12.8714 7.78796 11.6972 8.81131 11.4807 9.53291V7.88636H7.8006C7.84652 8.75883 7.8006 18.3626 7.8006 18.3626H11.4807V12.7014C11.4807 12.3799 11.4676 12.065 11.5594 11.842C11.8087 11.2123 12.3532 10.5563 13.3306 10.5563C14.6098 10.5563 15.1871 11.5271 15.1871 12.9441V18.3626H18.9V12.5374C18.9 9.29675 17.0764 7.78796 14.7476 7.78796Z"
              fill="currentColor"/>
    </g>
    <g id="telegram">
        <path d="M18.9057 4.76449L16.3705 16.7208C16.1791 17.5644 15.6804 17.7745 14.9717 17.3772L11.1085 14.5305L9.24472 16.3235C9.0383 16.5299 8.86608 16.7022 8.46824 16.7022L8.74607 12.7681L15.9054 6.29885C16.2169 6.02162 15.8376 5.86741 15.4218 6.14524L6.57084 11.7186L2.76043 10.5257C1.93174 10.2671 1.91674 9.69701 2.93325 9.29917L17.837 3.55716C18.5271 3.29854 19.1308 3.71018 18.9057 4.76449Z"
              fill="currentColor"/>
    </g>
    <g id="vk">
        <path d="M18.1696 13.9941C17.8038 13.5391 17.3881 13.1314 16.9861 12.737C16.8432 12.5968 16.6954 12.4518 16.5529 12.3076C16.1439 11.8932 16.129 11.7375 16.4529 11.2668C16.6769 10.9424 16.9145 10.6175 17.1442 10.3033C17.3526 10.0183 17.568 9.72351 17.7746 9.42777L17.817 9.36697C18.2117 8.80103 18.6199 8.21583 18.8372 7.50988C18.8936 7.32363 18.9528 7.04955 18.8174 6.82036C18.682 6.59137 18.4195 6.52151 18.2337 6.48888C18.1418 6.47273 18.0506 6.47053 17.9659 6.47053L15.3809 6.46861L15.3595 6.46842C14.9687 6.46842 14.7053 6.65927 14.5544 7.05194C14.4103 7.42713 14.252 7.82665 14.0714 8.20653C13.7119 8.96298 13.2554 9.83425 12.5948 10.5609L12.5669 10.5918C12.4889 10.6787 12.4005 10.777 12.3359 10.777C12.326 10.777 12.3152 10.7751 12.303 10.7711C12.1662 10.7159 12.0744 10.3726 12.0785 10.213C12.0786 10.2108 12.0786 10.2086 12.0786 10.2064L12.0768 7.1105C12.0768 7.09976 12.0761 7.08913 12.0747 7.07849C12.009 6.57522 11.8633 6.26195 11.3129 6.15026C11.2983 6.14724 11.2834 6.14575 11.2685 6.14575H8.5806C8.14268 6.14575 7.90138 6.33018 7.67456 6.60623C7.61334 6.68002 7.48589 6.83364 7.54906 7.01998C7.61315 7.20911 7.8212 7.24955 7.88894 7.26268C8.22522 7.32899 8.41477 7.54213 8.46846 7.91453C8.56219 8.56121 8.57371 9.25144 8.50471 10.0868C8.48547 10.3189 8.44742 10.4982 8.38471 10.6514C8.37015 10.6872 8.31849 10.8038 8.26582 10.8039C8.24908 10.8039 8.20067 10.7971 8.11248 10.7341C7.90397 10.5861 7.75142 10.3749 7.57357 10.114C6.96853 9.22796 6.46074 8.25191 6.02097 7.12938C5.85787 6.71615 5.55327 6.48481 5.16289 6.478C4.73395 6.47125 4.34504 6.46799 3.97413 6.46799C3.56886 6.46799 3.19314 6.47187 2.82625 6.47978C2.51217 6.48553 2.29492 6.58308 2.18061 6.76996C2.06611 6.95697 2.07356 7.20264 2.20276 7.50001C3.23702 9.88254 4.17478 11.6149 5.24345 13.1171C5.99225 14.1683 6.74333 14.8959 7.60686 15.4068C8.51664 15.9461 9.5362 16.2083 10.7237 16.2083C10.8583 16.2083 10.9975 16.2048 11.1379 16.198C11.8279 16.1632 12.0839 15.9044 12.1163 15.2082C12.1317 14.8525 12.1692 14.4793 12.338 14.1611C12.4445 13.9606 12.5439 13.9606 12.5765 13.9606C12.6394 13.9606 12.7174 13.9906 12.8011 14.0468C12.9513 14.1484 13.0801 14.2845 13.1857 14.4034C13.285 14.5163 13.3833 14.6304 13.4817 14.7446C13.6939 14.9909 13.9134 15.2456 14.1427 15.4871C14.6445 16.0162 15.1973 16.2488 15.8323 16.1983H18.2023C18.2073 16.1983 18.2124 16.1981 18.2175 16.1978C18.4536 16.1817 18.6582 16.0459 18.7786 15.8254C18.9279 15.5522 18.9249 15.2037 18.7706 14.893C18.5956 14.5415 18.3685 14.2413 18.1696 13.9941Z"
              fill="currentColor"/>
    </g>
    <g id="quote">
        <path d="M9.54167 12.8333C9.07708 12.8333 8.63125 12.9042 8.1875 12.9688C8.33125 12.4854 8.47917 11.9938 8.71667 11.5521C8.95417 10.9104 9.325 10.3542 9.69375 9.79375C10.0021 9.1875 10.5458 8.77709 10.9458 8.25834C11.3646 7.75417 11.9354 7.41875 12.3875 7C12.8312 6.5625 13.4125 6.34375 13.875 6.03542C14.3583 5.75834 14.7792 5.45209 15.2292 5.30625L16.3521 4.84375L17.3396 4.43334L16.3292 0.395836L15.0854 0.695835C14.6875 0.795835 14.2021 0.912502 13.65 1.05209C13.0854 1.15625 12.4833 1.44167 11.8125 1.70209C11.15 1.99792 10.3833 2.19792 9.67083 2.67292C8.95417 3.12709 8.12708 3.50625 7.39791 4.11459C6.69166 4.74167 5.83958 5.28542 5.21041 6.08334C4.52291 6.82917 3.84375 7.6125 3.31666 8.50417C2.70625 9.35417 2.29166 10.2875 1.85416 11.2104C1.45833 12.1333 1.13958 13.0771 0.879164 13.9938C0.385414 15.8313 0.164581 17.5771 0.079164 19.0708C0.0083307 20.5667 0.0499974 21.8104 0.137497 22.7104C0.168747 23.1354 0.227081 23.5479 0.268748 23.8333L0.320831 24.1833L0.374997 24.1708C0.745541 25.9017 1.59855 27.4924 2.83534 28.7587C4.07213 30.0251 5.64217 30.9154 7.36383 31.3267C9.08549 31.738 10.8884 31.6535 12.5641 31.083C14.2397 30.5124 15.7196 29.4792 16.8325 28.1027C17.9454 26.7262 18.6459 25.0628 18.853 23.3048C19.06 21.5468 18.7651 19.7662 18.0024 18.1688C17.2396 16.5714 16.0403 15.2226 14.543 14.2784C13.0458 13.3342 11.3118 12.8332 9.54167 12.8333ZM32.4583 12.8333C31.9937 12.8333 31.5479 12.9042 31.1042 12.9688C31.2479 12.4854 31.3958 11.9938 31.6333 11.5521C31.8708 10.9104 32.2417 10.3542 32.6104 9.79375C32.9188 9.1875 33.4625 8.77709 33.8625 8.25834C34.2812 7.75417 34.8521 7.41875 35.3042 7C35.7479 6.5625 36.3292 6.34375 36.7917 6.03542C37.275 5.75834 37.6958 5.45209 38.1458 5.30625L39.2687 4.84375L40.2562 4.43334L39.2458 0.395836L38.0021 0.695835C37.6042 0.795835 37.1187 0.912502 36.5667 1.05209C36.0021 1.15625 35.4 1.44167 34.7292 1.70209C34.0688 2 33.3 2.19792 32.5875 2.675C31.8708 3.12917 31.0438 3.50834 30.3146 4.11667C29.6083 4.74375 28.7562 5.2875 28.1271 6.08334C27.4396 6.82917 26.7604 7.6125 26.2333 8.50417C25.6229 9.35417 25.2083 10.2875 24.7708 11.2104C24.375 12.1333 24.0562 13.0771 23.7958 13.9938C23.3021 15.8313 23.0812 17.5771 22.9958 19.0708C22.925 20.5667 22.9667 21.8104 23.0542 22.7104C23.0854 23.1354 23.1437 23.5479 23.1854 23.8333L23.2375 24.1833L23.2917 24.1708C23.6622 25.9017 24.5152 27.4924 25.752 28.7587C26.9888 30.0251 28.5588 30.9154 30.2805 31.3267C32.0022 31.738 33.8051 31.6535 35.4807 31.083C37.1564 30.5124 38.6363 29.4792 39.7492 28.1027C40.8621 26.7262 41.5626 25.0628 41.7696 23.3048C41.9766 21.5468 41.6817 19.7662 40.919 18.1688C40.1563 16.5714 38.957 15.2226 37.4597 14.2784C35.9624 13.3342 34.2284 12.8332 32.4583 12.8333Z"
              fill="#7572D5"/>
    </g>
    <g id="goTop">
        <path d="M6.80722 4.2806V15H9.19278V4.2806L14.3134 9.08118L16 7.5L8 0L0 7.5L1.6866 9.08118L6.80722 4.2806Z"
              fill="#7572D5"/>
    </g>
</svg>
