<svg width="776.000000" height="878.000000" viewBox="0 0 776 878" fill="none" xmlns="http://www.w3.org/2000/svg" xmlns:xlink="http://www.w3.org/1999/xlink">
	<desc>
			Created with Pixso.
	</desc>
	<defs/>
	<path id="yellow-bg" d="M425.75 0.66C525.01 5.37 629.41 42.26 690.01 119.05C746.05 190.06 708.4 290.88 724.4 379.11C737.27 450.04 785.3 512.96 774.4 584.2C762.33 663.13 723.84 738.45 661.53 790.18C596.27 844.36 509.83 889.89 425.75 873.67C344.26 857.94 318.87 754.82 249.24 710.63C173.06 662.28 40.25 688.78 5.43 606.91C-28.69 526.71 82.95 456.25 105.3 372.2C130.06 279.1 78.6 166.63 142.09 93.02C207.86 16.76 323.68 -4.19 425.75 0.66Z" fill="#FDC435" fill-opacity="1.000000" fill-rule="evenodd"/>
</svg>
